<svg xmlns="http://www.w3.org/2000/svg" viewBox="0 0 540 900" role="img" aria-label="알고리즘 흐름도">
<defs><marker id="arrow" markerWidth="8" markerHeight="8" refX="7" refY="4" orient="auto"><path d="M0,0 L8,4 L0,8Z" fill="#526474"/></marker></defs>
<rect width="540" height="900" fill="#f5f7fa"/>
<path d="M270,118 L270,165" fill="none" stroke="#526474" stroke-width="2" marker-end="url(#arrow)"/>
<path d="M270,243 L270,290" fill="none" stroke="#526474" stroke-width="2" marker-end="url(#arrow)"/>
<path d="M270,368 L270,415" fill="none" stroke="#526474" stroke-width="2" marker-end="url(#arrow)"/>
<path d="M270,493 L270,540" fill="none" stroke="#526474" stroke-width="2" marker-end="url(#arrow)"/>
<path d="M270,618 L270,665" fill="none" stroke="#526474" stroke-width="2" marker-end="url(#arrow)"/>
<path d="M270,743 L270,790" fill="none" stroke="#526474" stroke-width="2" marker-end="url(#arrow)"/>
<rect x="60" y="40" width="420" height="78" rx="10" fill="#fff" stroke="#cbd5e1" stroke-width="1.5"/>
<text x="270" y="79" text-anchor="middle" dominant-baseline="middle" font-family="Malgun Gothic, Segoe UI, sans-serif" font-size="15" fill="#142536">원래 지도 + 목표 스펙트럼 + 후보 R</text>
<rect x="60" y="165" width="420" height="78" rx="10" fill="#fff" stroke="#cbd5e1" stroke-width="1.5"/>
<text x="270" y="204" text-anchor="middle" dominant-baseline="middle" font-family="Malgun Gothic, Segoe UI, sans-serif" font-size="15" fill="#142536">실제 도로 밖 비대각 성분 검사</text>
<rect x="60" y="290" width="420" height="78" rx="10" fill="#fff" stroke="#cbd5e1" stroke-width="1.5"/>
<text x="270" y="329" text-anchor="middle" dominant-baseline="middle" font-family="Malgun Gothic, Segoe UI, sans-serif" font-size="15" fill="#142536">m_e=−R_uv/(a_u g_e) 복원</text>
<rect x="60" y="415" width="420" height="78" rx="10" fill="#fff" stroke="#cbd5e1" stroke-width="1.5"/>
<text x="270" y="454" text-anchor="middle" dominant-baseline="middle" font-family="Malgun Gothic, Segoe UI, sans-serif" font-size="15" fill="#142536">정수·짝수·집 방문·연결 검사</text>
<rect x="60" y="540" width="420" height="78" rx="10" fill="#fff" stroke="#cbd5e1" stroke-width="1.5"/>
<text x="270" y="579" text-anchor="middle" dominant-baseline="middle" font-family="Malgun Gothic, Segoe UI, sans-serif" font-size="15" fill="#142536">R(m) 재생성과 목표 charpoly 일치</text>
<rect x="60" y="665" width="420" height="78" rx="10" fill="#fff" stroke="#cbd5e1" stroke-width="1.5"/>
<text x="270" y="704" text-anchor="middle" dominant-baseline="middle" font-family="Malgun Gothic, Segoe UI, sans-serif" font-size="15" fill="#142536">회로 표 생성 후 왕복 확인</text>
<rect x="60" y="790" width="420" height="78" rx="10" fill="#fff" stroke="#cbd5e1" stroke-width="1.5"/>
<text x="270" y="829" text-anchor="middle" dominant-baseline="middle" font-family="Malgun Gothic, Segoe UI, sans-serif" font-size="15" fill="#142536">R, D, C, K, m, 시간 출력</text>
</svg>
