<svg xmlns="http://www.w3.org/2000/svg" viewBox="0 0 540 775" role="img" aria-label="알고리즘 흐름도">
<defs><marker id="arrow" markerWidth="8" markerHeight="8" refX="7" refY="4" orient="auto"><path d="M0,0 L8,4 L0,8Z" fill="#526474"/></marker></defs>
<rect width="540" height="775" fill="#f5f7fa"/>
<path d="M270,118 L270,165" fill="none" stroke="#526474" stroke-width="2" marker-end="url(#arrow)"/>
<path d="M270,243 L270,290" fill="none" stroke="#526474" stroke-width="2" marker-end="url(#arrow)"/>
<path d="M270,368 L270,415" fill="none" stroke="#526474" stroke-width="2" marker-end="url(#arrow)"/>
<path d="M270,493 L270,540" fill="none" stroke="#526474" stroke-width="2" marker-end="url(#arrow)"/>
<path d="M270,618 L270,665" fill="none" stroke="#526474" stroke-width="2" marker-end="url(#arrow)"/>
<rect x="60" y="40" width="420" height="78" rx="10" fill="#fff" stroke="#cbd5e1" stroke-width="1.5"/>
<text x="270" y="79" text-anchor="middle" dominant-baseline="middle" font-family="Malgun Gothic, Segoe UI, sans-serif" font-size="15" fill="#142536">기본 지도 인접 관계</text>
<rect x="60" y="165" width="420" height="78" rx="10" fill="#fff" stroke="#cbd5e1" stroke-width="1.5"/>
<text x="270" y="204" text-anchor="middle" dominant-baseline="middle" font-family="Malgun Gothic, Segoe UI, sans-serif" font-size="15" fill="#142536">반복형 DFS: 방문 순서와 low 값</text>
<rect x="60" y="290" width="420" height="78" rx="10" fill="#fff" stroke="#cbd5e1" stroke-width="1.5"/>
<text x="270" y="329" text-anchor="middle" dominant-baseline="middle" font-family="Malgun Gothic, Segoe UI, sans-serif" font-size="15" fill="#142536">다리와 하위 필수 집 수 확인</text>
<rect x="60" y="415" width="420" height="78" rx="10" fill="#fff" stroke="#cbd5e1" stroke-width="1.5"/>
<text x="270" y="454" text-anchor="middle" dominant-baseline="middle" font-family="Malgun Gothic, Segoe UI, sans-serif" font-size="15" fill="#142536">필수 집을 분리하는 다리 → m=2</text>
<rect x="60" y="540" width="420" height="78" rx="10" fill="#fff" stroke="#cbd5e1" stroke-width="1.5"/>
<text x="270" y="579" text-anchor="middle" dominant-baseline="middle" font-family="Malgun Gothic, Segoe UI, sans-serif" font-size="15" fill="#142536">가게 밖 성분 도로 → m=0</text>
<rect x="60" y="665" width="420" height="78" rx="10" fill="#fff" stroke="#cbd5e1" stroke-width="1.5"/>
<text x="270" y="704" text-anchor="middle" dominant-baseline="middle" font-family="Malgun Gothic, Segoe UI, sans-serif" font-size="15" fill="#142536">고정 횟수와 다리 집합 반환</text>
</svg>
